<?xml version="1.0" standalone="no"?>
<!DOCTYPE svg PUBLIC "-//W3C//DTD SVG 20010904//EN"
 "http://www.w3.org/TR/2001/REC-SVG-20010904/DTD/svg10.dtd">
<svg version="1.0" xmlns="http://www.w3.org/2000/svg"
 width="225.000000pt" height="225.000000pt" viewBox="0 0 225.000000 225.000000"
 preserveAspectRatio="xMidYMid meet">

<g transform="translate(0.000000,225.000000) scale(0.100000,-0.100000)"
fill="#000000" stroke="none">
<path d="M985 2239 c-267 -36 -488 -149 -675 -345 -146 -154 -237 -327 -287
-547 -22 -98 -22 -346 0 -444 53 -235 144 -401 311 -569 174 -173 342 -263
591 -315 86 -18 333 -16 422 4 235 53 401 144 569 311 167 168 258 334 311
569 22 98 22 346 0 444 -53 235 -144 401 -311 569 -136 136 -266 218 -436 274
-143 48 -353 69 -495 49z m255 -29 c405 -50 733 -293 889 -660 214 -501 21
-1085 -449 -1364 -251 -149 -551 -190 -834 -116 -378 100 -677 400 -777 779
-67 257 -40 510 81 756 114 234 275 392 511 504 190 91 384 124 579 101z"/>
<path d="M962 1432 c-122 -128 -158 -172 -150 -180 7 -7 17 -12 24 -12 7 0 67
59 134 130 68 72 125 130 129 130 3 0 5 -142 3 -315 l-3 -315 26 0 25 0 0 317
0 318 133 -133 c125 -124 133 -131 149 -115 16 16 8 26 -140 177 -86 89 -160
162 -163 164 -3 1 -79 -73 -167 -166z"/>
<path d="M775 750 l0 -100 350 0 350 0 0 100 0 100 -32 0 -33 0 0 -70 0 -70
-285 0 -285 0 0 70 0 70 -32 0 -33 0 0 -100z"/>
</g>
</svg>
